<svg width="199" height="199" xmlns="http://www.w3.org/2000/svg">
 <!-- Created with Method Draw - http://github.com/duopixel/Method-Draw/ -->
 <g>
  <title>background</title>
  <rect fill="#fff" id="canvas_background" height="201" width="201" y="-1" x="-1"/>
  <g display="none" overflow="visible" y="0" x="0" height="100%" width="100%" id="canvasGrid">
   <rect fill="url(#gridpattern)" stroke-width="0" y="0" x="0" height="100%" width="100%"/>
  </g>
 </g>
 <g>
  <title>Layer 1</title>
  <text xml:space="preserve" text-anchor="start" font-family="'League Gothic', sans-serif" font-size="24" id="svg_1" y="208.5" x="256" stroke-width="0" stroke="#000" fill="#000000">E M G</text>
  <path id="svg_2" d="m342.62658,133.629573c3.151788,-5.603112 10.325605,-6.598054 15.760318,-7.356067c6.060451,0.626256 10.731359,6.058684 14.284492,11.311998c4.1333,4.293855 9.17975,7.937538 11.248425,14.224167c5.23028,2.979942 11.40498,4.573862 14.606497,10.949619c4.838961,7.192447 7.627562,15.89815 10.1504,24.331615c0.4006,6.286944 2.816619,12.022317 3.639603,18.252551c1.411344,6.176649 2.536425,12.282891 4.057164,18.405013c1.690133,6.364869 4.091246,12.421796 5.773765,18.795586c3.072993,5.593485 5.870775,11.495087 7.778663,17.72439c-4.565135,-0.444909 0.421653,7.938364 1.277814,11.243234c1.248307,6.802239 -5.592043,2.907838 -6.788218,-0.233456c-4.224738,4.595424 -12.873993,5.627246 -16.702466,-0.40421c-4.032912,-6.111238 -6.260344,-13.865448 -11.827429,-18.289336c-2.188914,-2.095094 -4.312715,-11.243549 -5.096079,-3.164027c2.779568,8.038552 -8.15929,3.456965 -12.044736,4.900557c-6.963902,-1.610276 2.64363,-6.187016 5.60243,-5.644788c2.78006,-3.180933 7.406673,-8.508382 0.765711,-10.17819c-4.548083,-2.079174 -10.37869,-7.351762 -12.935723,0.496548c-3.210824,1.952975 -8.965348,11.218038 -2.591677,11.900838c2.575505,6.061808 -7.432785,1.677293 -10.227402,3.111067c-2.634889,0.955239 -9.201935,-0.719631 -3.085604,-2.252091c5.262316,-0.993466 7.77131,-8.426161 11.075122,-12.928396c-0.109556,-5.776349 -4.130588,-10.360764 -7.144579,-14.722096c-3.206319,-6.147333 -7.680064,-11.412701 -9.907905,-18.140784c-1.461373,-6.986269 -4.243679,-13.445584 -5.654736,-20.447938c-1.593049,-7.017397 -3.419885,-14.930065 0.008241,-21.654664c1.562479,-5.89989 2.213088,-11.404371 -1.065823,-16.260599c-4.53063,-4.234332 -10.969867,-2.536073 -16.193921,-5.344075c-0.629625,-4.535165 7.734433,-6.265567 11.369631,-7.278592c1.38013,-0.055112 2.436489,-1.382527 3.868024,-1.347889l0,0.000015z" stroke-width="1.5" stroke="#000" fill="#020707"/>
  <path id="svg_3" d="m131.38102,32.139724c2.03048,-4.061317 6.652075,-4.782483 10.153285,-5.331915c3.90433,0.453931 6.913474,4.39153 9.202513,8.199302c2.6628,3.112325 5.91388,5.753384 7.246584,10.310136c3.369508,2.159958 7.347442,3.315283 9.409958,7.936638c3.117409,5.213318 4.913912,11.523493 6.539202,17.636342c0.258079,4.55698 1.814554,8.714164 2.344745,13.230039c0.909232,4.477035 1.634043,8.903036 2.613751,13.340548c1.088836,4.613463 2.635708,9.003719 3.719638,13.623648c1.979717,4.054339 3.782135,8.332011 5.011256,12.847211c-2.941001,-0.322485 0.271642,5.753983 0.823207,8.149459c0.804198,4.930483 -3.602568,2.107695 -4.373181,-0.169216c-2.721707,3.330912 -8.293825,4.07881 -10.760247,-0.292984c-2.598127,-4.429623 -4.033108,-10.050125 -7.619596,-13.256702c-1.410166,-1.518592 -2.778384,-8.149688 -3.283052,-2.293389c1.790684,5.826602 -5.256467,2.50572 -7.759592,3.552082c-4.486362,-1.16718 1.703109,-4.484549 3.609259,-4.091525c1.791001,-2.305643 4.771608,-6.16715 0.493295,-7.377481c-2.930016,-1.507053 -6.686274,-5.328794 -8.333594,0.359914c-2.068513,1.415579 -5.775755,8.131197 -1.669639,8.626112c1.65922,4.393794 -4.78843,1.215756 -6.588809,2.255002c-1.697477,0.692388 -5.928172,-0.521612 -1.987842,-1.632388c3.390147,-0.720096 5.006519,-6.107554 7.134937,-9.370919c-0.07058,-4.186884 -2.661053,-7.509817 -4.60276,-10.671051c-2.06561,-4.455785 -4.947735,-8.272295 -6.38298,-13.149027c-0.941462,-5.063874 -2.73391,-9.745794 -3.642956,-14.821326c-1.026291,-5.086437 -2.203196,-10.821794 0.005309,-15.696001c1.006598,-4.276431 1.42574,-8.266257 -0.686636,-11.786208c-2.918773,-3.069181 -7.067128,-1.838228 -10.432626,-3.873558c-0.405624,-3.287234 4.982761,-4.541486 7.324668,-5.275759c0.889123,-0.039947 1.569662,-1.0021 2.491901,-0.976994l0,0.000011z" fill-opacity="null" stroke-opacity="null" stroke-width="1.5" stroke="#000" fill="#020707"/>
  <text xml:space="preserve" text-anchor="start" font-family="'League Gothic', sans-serif" font-size="24" id="svg_4" y="32.9375" x="22" fill-opacity="null" stroke-opacity="null" stroke-width="0" stroke="#000" fill="#000000">EMG</text>
 </g>
</svg>